<svg xmlns="http://www.w3.org/2000/svg" viewBox="0 0 32 32">
  <path d="M32 6.076c-1.177 0.522-2.443 0.875-3.771 1.034 1.355-0.813 2.396-2.1 2.887-3.632-1.269 0.752-2.674 1.3-4.168 1.593-1.198-1.276-2.904-2.073-4.8-2.073-3.631 0-6.575 2.944-6.575 6.575 0 0.515 0.058 1.016 0.17 1.496-5.466-0.274-10.314-2.893-13.558-6.873-0.566 0.97-0.89 2.098-0.89 3.306 0 2.282 1.161 4.295 2.925 5.474-1.078-0.034-2.092-0.33-2.974-0.821 0 0.027 0 0.055 0 0.083 0 3.186 2.267 5.843 5.275 6.447-0.552 0.15-1.133 0.231-1.733 0.231-0.424 0-0.836-0.041-1.239-0.118 0.837 2.612 3.265 4.513 6.143 4.566-2.251 1.764-5.087 2.816-8.165 2.816-0.531 0-1.054-0.031-1.569-0.092 2.911 1.866 6.368 2.955 10.082 2.955 12.096 0 18.712-10.020 18.712-18.712 0-0.285-0.006-0.569-0.019-0.852 1.285-0.927 2.401-2.085 3.284-3.405z" fill="#41b883"/>
</svg>